<!DOCTYPE svg PUBLIC "-//W3C//DTD SVG 1.1//EN" "http://www.w3.org/Graphics/SVG/1.1/DTD/svg11.dtd">
<!-- Uploaded to: SVG Repo, www.svgrepo.com, Transformed by: SVG Repo Mixer Tools -->
<svg width="800px" height="800px" viewBox="0 0 16 16" xmlns="http://www.w3.org/2000/svg" fill="#000000">
<g id="SVGRepo_bgCarrier" stroke-width="0"/>
<g id="SVGRepo_tracerCarrier" stroke-linecap="round" stroke-linejoin="round"/>
<g id="SVGRepo_iconCarrier"> <path fill-rule="evenodd" clip-rule="evenodd" d="M14.707 2.707a1 1 0 00-1.414-1.414l-1.394 1.394a4.001 4.001 0 00-5.071.485l-1.12 1.12a1 1 0 00-1.415 1.415L3.168 6.832a4.001 4.001 0 00-.485 5.07l-1.39 1.39a1 1 0 101.414 1.415l1.39-1.39a4.001 4.001 0 005.071-.485l1.125-1.125a1 1 0 001.414-1.414l1.12-1.12a4.001 4.001 0 00.486-5.072l1.394-1.394zM10.293 8.88l1.12-1.121a2 2 0 000-2.828l-.343-.344.758-.758-.758.758a2 2 0 00-2.828 0l-1.12 1.121 3.17 3.172zM5.707 7.12L4.582 8.246a2 2 0 000 2.828l-.754.754.754-.754.344.344a2 2 0 002.828 0l1.125-1.125L5.707 7.12z" fill="#22cc22"/> </g>
</svg>